#!OML:ASF F:\VICON\USERDATA\INSTALL\rory3\rory3.ASF
:FULLY-SPECIFIED
:DEGREES
148
root 10.5503 17.7884 -7.02485 -181.269 -13.5696 180.878
lowerback 9.32488 7.77672 0.799383
upperback 1.73308 10.0766 -3.34998
thorax -2.61023 4.92082 -5.00429
lowerneck -15.4003 15.8649 -4.19092
upperneck 45.5717 20.8892 4.31758
head 18.8276 6.85962 6.21334
rclavicle 2.52457e-014 6.36111e-014
rhumerus -41.3858 -18.2384 -73.7202
rradius 35.6668
rwrist 4.8964
rhand -13.9849 8.58993
rfingers 7.12502
rthumb 12.1437 -21.0376
lclavicle 2.52457e-014 6.36111e-014
lhumerus -34.0559 18.3973 69.3689
lradius 29.1769
lwrist -6.83112
lhand -18.7598 27.8268
lfingers 7.12502
lthumb 7.53697 57.6726
rfemur 8.37368 -9.53165 24.7687
rtibia 37.9655
rfoot -4.36253 2.49815
rtoes -10.9867
lfemur -16.6261 -8.42574 -21.8285
ltibia 25.7596
lfoot -2.14146 -20.4769
ltoes 21.4029
149
root 10.5483 17.77 -6.9008 -181.118 -13.0295 181.072
lowerback 9.19378 7.94959 1.19555
upperback 1.66856 10.3534 -3.39571
thorax -2.50257 5.0637 -5.26934
lowerneck -15.6037 15.7951 -4.35713
upperneck 45.6253 20.7855 4.52963
head 18.8475 6.81924 6.33787
rclavicle 2.28602e-015 -4.13472e-014
rhumerus -41.0628 -18.0811 -73.7727
rradius 36.47
rwrist 4.55109
rhand -14.1168 8.97698
rfingers 7.12502
rthumb 12.0165 -20.6581
lclavicle 2.28602e-015 -4.13472e-014
lhumerus -34.2024 18.22 69.4226
lradius 29.1199
lwrist -6.61229
lhand -18.9182 28.3229
lfingers 7.12502
lthumb 7.38416 58.174
rfemur 9.19565 -8.49603 25.2321
rtibia 35.6367
rfoot -5.12975 2.44861
rtoes -9.85623
lfemur -17.41 -8.08631 -21.6117
ltibia 26.1281
lfoot -2.30749 -20.3243
ltoes 18.5361
150
root 10.5578 17.7526 -6.75835 -181.055 -12.6348 181.398
lowerback 9.25164 8.03792 1.67608
upperback 1.66942 10.5261 -3.35044
thorax -2.43879 5.15292 -5.49905
lowerneck -15.7103 15.7444 -4.53646
upperneck 45.4226 20.8055 4.5319
head 18.7156 6.83797 6.35581
rclavicle -6.14245e-014 -2.22639e-014
rhumerus -40.4218 -17.8152 -73.8623
rradius 37.1198
rwrist 4.38378
rhand -13.4037 8.57128
rfingers 7.12502
rthumb 12.704 -21.0223
lclavicle -6.14245e-014 -2.22639e-014
lhumerus -34.2266 18.2901 69.5199
lradius 28.9959
lwrist -6.49653
lhand -18.9451 28.4434
lfingers 7.12502
lthumb 7.35815 58.2954
rfemur 9.87662 -7.54632 25.9211
rtibia 33.4692
rfoot -6.17601 2.24358
rtoes -9.776
lfemur -18.2596 -7.92323 -21.1652
ltibia 26.4737
lfoot -1.86482 -20.2074
ltoes 19.1506
151
root 10.5718 17.7347 -6.59467 -180.944 -12.226 181.837
lowerback 9.65106 8.05205 2.2964
upperback 1.50266 10.6185 -3.33555
thorax -2.71175 5.19021 -5.89988
lowerneck -15.687 15.7923 -4.46017
upperneck 45.2211 20.9452 4.34216
head 18.6277 6.90802 6.26591
rclavicle 2.62396e-014 4.13472e-014
rhumerus -39.861 -17.3126 -74.0892
rradius 37.8599
rwrist 3.98744
rhand -13.3496 8.48123
rfingers 7.12502
rthumb 12.7562 -21.1091
lclavicle 2.62396e-014 4.13472e-014
lhumerus -34.3583 18.7129 69.3234
lradius 28.7294
lwrist -6.75394
lhand -18.7583 28.0877
lfingers 7.12502
lthumb 7.53844 57.9333
rfemur 10.2362 -6.60307 26.7652
rtibia 31.5651
rfoot -7.36751 1.92091
rtoes -10.5997
lfemur -19.2559 -7.70433 -20.5413
ltibia 26.6874
lfoot -1.20804 -20.2334
ltoes 20.8847
152
root 10.5857 17.7174 -6.42429 -180.773 -11.7102 182.066
lowerback 10.2188 8.09463 2.84606
upperback 1.25453 10.7362 -3.49265
thorax -3.13668 5.22819 -6.48111
lowerneck -15.6879 15.8437 -4.33119
upperneck 45.1863 20.975 4.35285
head 18.6221 6.94731 6.25711
rclavicle 1.02374e-013 -4.13472e-014
rhumerus -39.4923 -16.877 -74.4431
rradius 38.693
rwrist 3.7665
rhand -14.1221 8.60807
rfingers 7.12502
rthumb 12.0114 -21.0273
lclavicle 1.02374e-013 -4.13472e-014
lhumerus -34.5771 18.9523 69.0287
lradius 28.5749
lwrist -6.93388
lhand -18.619 27.746
lfingers 7.12502
lthumb 7.67294 57.5868
rfemur 10.4622 -5.74512 27.3254
rtibia 29.9919
rfoot -8.55841 1.25584
rtoes -12.2674
lfemur -20.1442 -7.40714 -20.156
ltibia 26.7495
lfoot -0.893158 -20.2543
ltoes 19.4187
153
root 10.5936 17.7094 -6.27081 -180.663 -11.3487 182.041
lowerback 10.629 8.13201 3.10972
upperback 1.11524 10.8127 -3.63332
thorax -3.4209 5.24941 -6.85652
lowerneck -15.693 15.8975 -4.20327
upperneck 45.2484 20.9897 4.40236
head 18.6707 6.97113 6.27304
rclavicle 7.39479e-014 -9.54166e-015
rhumerus -39.2026 -16.5143 -74.6739
rradius 39.5371
rwrist 4.02413
rhand -14.3199 8.3835
rfingers 7.12502
rthumb 11.8206 -21.2629
lclavicle 7.39479e-014 -9.54166e-015
lhumerus -34.8298 18.9825 68.9372
lradius 28.5471
lwrist -6.80675
lhand -18.5786 27.6463
lfingers 7.12502
lthumb 7.71193 57.4857
rfemur 10.7741 -5.34917 27.4116
rtibia 28.6951
rfoot -9.57921 0.674232
rtoes -13.4695
lfemur -20.7242 -7.2377 -20.1122
ltibia 26.6364
lfoot -0.55767 -20.3167
ltoes 16.9955
154
root 10.5967 17.7002 -6.12983 -180.619 -11.1226 181.935
lowerback 10.7626 8.18204 3.12804
upperback 1.18797 10.8792 -3.6029
thorax -3.41114 5.28173 -6.85558
lowerneck -15.8695 15.8964 -4.22497
upperneck 45.3058 21.0771 4.29876
head 18.768 6.9714 6.27585
rclavicle -3.08116e-014 1.03368e-014
rhumerus -38.6585 -16.1835 -74.621
rradius 40.4921
rwrist 3.63812
rhand -13.2691 7.87019
rfingers 7.12502
rthumb 12.8338 -21.7153
lclavicle -3.08116e-014 1.03368e-014
lhumerus -34.9965 19.1278 69.1955
lradius 28.5897
lwrist -6.73265
lhand -18.5359 28.0197
lfingers 7.12502
lthumb 7.75308 57.8576
rfemur 11.1172 -5.12743 27.3068
rtibia 27.5755
rfoot -10.5905 0.521805
rtoes -13.3128
lfemur -21.0676 -7.12088 -20.2068
ltibia 26.3003
lfoot 0.00257185 -20.4205
ltoes 15.8447
155
root 10.5963 17.6939 -5.98864 -180.478 -10.8825 181.938
lowerback 10.5138 8.20767 3.24384
upperback 1.43165 10.9246 -3.48337
thorax -3.01514 5.3225 -6.72766
lowerneck -16.1318 15.8608 -4.46051
upperneck 45.1936 21.2352 4.13756
head 18.7539 6.98755 6.28333
rclavicle 1.22054e-013 -5.80451e-014
rhumerus -37.7717 -15.7457 -74.5712
rradius 41.4592
rwrist 2.89331
rhand -13.4111 7.91543
rfingers 7.12502
rthumb 12.6969 -21.6786
lclavicle 1.22054e-013 -5.80451e-014
lhumerus -34.9341 19.7697 69.5785
lradius 28.5575
lwrist -7.08828
lhand -18.2506 28.005
lfingers 7.12502
lthumb 8.02846 57.8326
rfemur 11.2592 -4.87999 27.2816
rtibia 26.4482
rfoot -11.5805 0.628983
rtoes -11.5139
lfemur -21.4954 -6.98329 -20.1761
ltibia 25.8651
lfoot 0.747922 -20.4016
ltoes 16.1124
156
root 10.6012 17.6946 -5.8479 -180.408 -10.6887 181.912
lowerback 10.743 8.18013 3.42308
upperback 1.39038 10.9091 -3.52896
thorax -3.14289 5.30694 -6.9115
lowerneck -16.0429 15.9383 -4.36218
upperneck 45.1591 21.3065 4.13473
head 18.7197 7.04111 6.2674
rclavicle 7.53394e-014 -4.77083e-015
rhumerus -37.4919 -15.3115 -74.7166
rradius 42.4219
rwrist 2.64156
rhand -14.8395 8.69583
rfingers 7.12502
rthumb 11.3195 -20.9787
lclavicle 7.53394e-014 -4.77083e-015
lhumerus -35.1174 20.1157 69.5293
lradius 28.3633
lwrist -7.41217
lhand -18.3193 27.2812
lfingers 7.12502
lthumb 7.96215 57.1112
rfemur 11.4341 -4.73303 27.2207
rtibia 25.2642
rfoot -12.4784 0.483486
rtoes -10.4447
lfemur -21.8377 -6.95303 -20.1313
ltibia 25.412
lfoot 1.68829 -20.2864
ltoes 17.024
157
root 10.6089 17.6914 -5.70752 -180.505 -10.6029 181.937
lowerback 11.0997 8.11743 3.66897
upperback 1.43245 10.8538 -3.53596
thorax -3.25339 5.27028 -7.10007
lowerneck -16.1059 15.9866 -4.34115
upperneck 45.1959 21.3505 4.21654
head 18.7401 7.07198 6.31854
rclavicle 5.78463e-014 -5.32743e-014
rhumerus -36.9787 -14.8575 -74.8426
rradius 43.0219
rwrist 2.51805
rhand -15.0288 9.05846
rfingers 7.12502
rthumb 11.1369 -20.626
lclavicle 5.78463e-014 -5.32743e-014
lhumerus -35.2554 20.2298 69.631
lradius 28.3188
lwrist -7.43517
lhand -18.3288 27.3041
lfingers 7.12502
lthumb 7.95301 57.1345
rfemur 11.7671 -4.83689 27.1877
rtibia 24.1252
rfoot -13.3721 0.11314
rtoes -11.3232
lfemur -21.9843 -6.8766 -20.0727
ltibia 24.8852
lfoot 2.72489 -20.3303
ltoes 17.3331
158
root 10.6121 17.6896 -5.56535 -180.593 -10.5077 182.124
lowerback 11.3886 8.0868 4.07907
upperback 1.5062 10.8697 -3.45958
thorax -3.2694 5.27402 -7.28046
lowerneck -16.2907 15.9357 -4.47595
upperneck 45.2358 21.3445 4.23934
head 18.7873 7.0435 6.37115
rclavicle 8.07066e-014 -4.92986e-014
rhumerus -36.4719 -14.6546 -74.7493
rradius 43.7021
rwrist 2.41312
rhand -14.7775 9.17527
rfingers 7.12502
rthumb 11.3793 -20.496
lclavicle 8.07066e-014 -4.92986e-014
lhumerus -35.3554 20.1685 69.9998
lradius 28.4207
lwrist -7.37788
lhand -18.1922 28.2104
lfingers 7.12502
lthumb 8.08484 58.0357
rfemur 11.9288 -5.14641 27.2626
rtibia 23.1671
rfoot -13.9729 -0.0156327
rtoes -11.5354
lfemur -22.115 -6.74043 -19.8679
ltibia 24.2229
lfoot 3.83531 -20.3667
ltoes 17.7435
159
root 10.6141 17.6961 -5.42469 -180.509 -10.3332 182.147
lowerback 11.5343 8.09683 4.29607
upperback 1.5213 10.9123 -3.46111
thorax -3.28542 5.29247 -7.42396
lowerneck -16.256 15.9201 -4.3754
upperneck 45.1905 21.3402 4.10018
head 18.8 7.04103 6.2936
rclavicle 7.03698e-014 1.11319e-014
rhumerus -36.2457 -14.6931 -74.593
rradius 44.7317
rwrist 2.4794
rhand -14.6397 9.27014
rfingers 7.12502
rthumb 11.5122 -20.3937
lclavicle 7.03698e-014 1.11319e-014
lhumerus -35.4204 20.1772 70.2685
lradius 28.4017
lwrist -7.41252
lhand -18.277 28.1976
lfingers 7.12502
lthumb 8.00297 58.0261
rfemur 11.7705 -5.53685 27.1065
rtibia 22.429
rfoot -14.2876 0.193132
rtoes -10.7579
lfemur -22.3942 -6.51711 -19.8106
ltibia 23.5166
lfoot 5.28582 -20.3552
ltoes 19.1667
160
root 10.6175 17.706 -5.28455 -180.385 -10.098 181.902
lowerback 11.5803 8.10057 4.11031
upperback 1.58765 10.8856 -3.47938
thorax -3.27546 5.27917 -7.34277
lowerneck -16.137 15.975 -4.17665
upperneck 45.1027 21.44 3.85417
head 18.7973 7.08436 6.16135
rclavicle -4.40308e-014 -4.37326e-014
rhumerus -35.7244 -14.5591 -74.4649
rradius 45.4026
rwrist 2.88602
rhand -14.199 9.1083
rfingers 7.12502
rthumb 11.9372 -20.5314
lclavicle -4.40308e-014 -4.37326e-014
lhumerus -35.4765 20.2076 70.5882
lradius 28.3861
lwrist -7.21944
lhand -18.5873 27.7087
lfingers 7.12502
lthumb 7.70353 57.5484
rfemur 11.5339 -5.83826 26.6742
rtibia 21.8641
rfoot -14.6234 0.431254
rtoes -8.4579
lfemur -22.6717 -6.41235 -19.9759
ltibia 22.8299
lfoot 6.59693 -20.4922
ltoes 19.4747
161
root 10.6233 17.7148 -5.1386 -180.355 -9.90442 181.915
lowerback 11.7205 8.06622 4.1677
upperback 1.69328 10.8482 -3.38318
thorax -3.25429 5.26025 -7.28229
lowerneck -16.2013 15.9899 -4.23144
upperneck 45.0364 21.5448 3.74101
head 18.7827 7.10901 6.13899
rclavicle -2.83268e-014 4.77083e-015
rhumerus -35.1413 -14.2988 -74.3022
rradius 46.0802
rwrist 3.00341
rhand -13.9067 8.9316
rfingers 7.12502
rthumb 12.2191 -20.6915
lclavicle -2.83268e-014 4.77083e-015
lhumerus -35.5071 20.1456 71.0738
lradius 28.4796
lwrist -7.03516
lhand -18.3963 27.9731
lfingers 7.12502
lthumb 7.8879 57.8059
rfemur 11.2847 -6.04424 26.6033
rtibia 21.4258
rfoot -14.9834 0.411247
rtoes -7.11618
lfemur -22.9276 -6.6022 -19.7517
ltibia 22.1646
lfoot 7.82501 -20.4889
ltoes 19.8078
162
root 10.6318 17.7244 -4.99214 -180.444 -9.73705 182.258
lowerback 12.0047 8.00276 4.53024
upperback 1.78402 10.8236 -3.19343
thorax -3.28696 5.24352 -7.31351
lowerneck -16.4811 16.0215 -4.32031
upperneck 45.1832 21.6584 3.7833
head 18.9171 7.11803 6.23642
rclavicle -1.08338e-013 1.35174e-014
rhumerus -34.7579 -14.0187 -74.1838
rradius 47.0173
rwrist 2.70201
rhand -14.097 9.00195
rfingers 7.12502
rthumb 12.0356 -20.632
lclavicle -1.08338e-013 1.35174e-014
lhumerus -35.5362 20.3727 71.4309
lradius 28.4633
lwrist -7.34189
lhand -18.2242 28.0093
lfingers 7.12502
lthumb 8.05397 57.8359
rfemur 10.997 -6.29661 26.9374
rtibia 21.1073
rfoot -15.2364 0.215421
rtoes -7.14526
lfemur -23.1592 -6.65472 -19.1847
ltibia 21.5498
lfoot 8.96652 -20.6084
ltoes 20.2675
